<?xml version="1.0" standalone="no"?>
<!DOCTYPE svg PUBLIC "-//W3C//DTD SVG 20010904//EN"
 "http://www.w3.org/TR/2001/REC-SVG-20010904/DTD/svg10.dtd">
<svg version="1.0" xmlns="http://www.w3.org/2000/svg"
 width="1200.000000pt" height="1200.000000pt" viewBox="0 0 1200.000000 1200.000000"
 preserveAspectRatio="xMidYMid meet">

<g transform="translate(0.000000,1200.000000) scale(0.100000,-0.100000)"
fill="#000000" stroke="none">
<path d="M1750 5665 l0 -2375 4250 0 4250 0 0 2375 0 2375 -4250 0 -4250 0 0
-2375z m5125 1590 c214 -104 249 -466 74 -762 -55 -92 -162 -194 -254 -239
-74 -37 -84 -39 -169 -39 -105 0 -143 14 -206 77 -133 133 -146 394 -31 633
79 166 192 277 335 332 76 29 189 28 251 -2z m-3703 -402 l3 -388 210 387 210
388 168 0 168 0 -3 -22 c-3 -21 -9 -23 -70 -26 -43 -2 -71 -8 -78 -17 -22 -26
-249 -879 -238 -892 6 -8 34 -13 70 -13 56 0 59 -1 56 -22 -3 -23 -4 -23 -219
-26 l-216 -2 5 25 c4 23 8 25 66 25 33 0 68 5 76 10 9 6 61 178 136 457 108
399 125 468 110 452 -2 -2 -126 -224 -274 -494 -209 -380 -275 -491 -291 -493
l-21 -3 0 496 c0 381 -3 496 -12 493 -12 -4 -237 -804 -238 -846 0 -39 42 -72
95 -72 45 0 50 -5 39 -34 -5 -14 -33 -16 -201 -16 -174 0 -194 2 -189 16 3 9
6 20 6 25 0 5 20 9 45 9 58 0 97 20 124 63 21 35 231 791 231 833 0 23 -3 24
-74 24 -73 0 -73 0 -68 25 l4 25 184 0 184 0 2 -387z m1688 374 c0 -8 -13 -81
-30 -162 -16 -81 -30 -150 -30 -152 0 -1 -8 -3 -19 -3 -16 0 -19 10 -23 88 -5
96 -19 135 -61 166 -25 19 -45 21 -181 24 -137 3 -153 2 -167 -15 -9 -10 -37
-99 -64 -198 -26 -99 -50 -186 -53 -192 -3 -10 17 -13 82 -13 135 0 171 23
211 132 17 49 28 64 45 66 17 3 21 0 16 -15 -5 -17 -87 -328 -107 -405 -7 -28
-15 -38 -29 -38 -19 0 -20 5 -14 68 5 53 3 75 -10 100 -20 38 -39 44 -135 40
l-74 -3 -58 -210 c-32 -115 -56 -216 -54 -223 4 -11 40 -13 173 -10 159 3 170
4 224 31 68 34 125 104 178 219 24 53 41 77 53 78 9 0 17 -5 17 -11 0 -6 -25
-89 -55 -185 -30 -96 -55 -177 -55 -179 0 -3 -189 -5 -421 -5 -380 0 -421 2
-415 16 3 9 6 20 6 25 0 5 28 9 63 9 34 0 68 4 76 9 15 10 254 878 247 898 -4
9 -26 13 -69 13 -63 0 -64 0 -59 25 l4 25 394 0 c323 0 394 -2 394 -13z m580
-374 l0 -388 211 388 210 387 168 0 168 0 -5 -25 c-4 -24 -8 -25 -67 -25 -41
0 -69 -5 -78 -14 -17 -17 -250 -873 -243 -892 4 -10 24 -14 72 -14 56 0 65 -2
60 -16 -3 -9 -6 -20 -6 -25 0 -5 -91 -9 -215 -9 -124 0 -215 4 -215 9 0 34 13
41 76 41 55 0 65 3 78 23 16 25 250 886 243 894 -7 6 -8 3 -297 -522 -133
-242 -248 -446 -255 -454 -7 -7 -21 -11 -29 -8 -14 6 -16 59 -16 497 0 320 -3
490 -10 490 -5 0 -10 -3 -10 -6 0 -3 -49 -185 -110 -405 -60 -220 -110 -416
-110 -435 0 -50 29 -74 89 -74 46 0 48 -1 43 -25 l-4 -25 -195 0 -194 0 3 23
c3 19 11 23 61 28 63 7 106 36 126 88 24 59 222 805 217 818 -4 9 -26 13 -76
13 -69 0 -76 3 -64 34 5 14 32 16 190 16 l184 0 0 -387z m2496 360 c77 -41
114 -106 114 -202 0 -91 -68 -177 -184 -232 -33 -16 -67 -29 -75 -29 -8 0 5
-13 27 -30 78 -56 102 -139 77 -265 -8 -44 -15 -99 -15 -122 0 -37 3 -43 25
-49 40 -10 74 21 109 97 29 64 47 82 60 60 11 -17 -36 -129 -70 -169 -41 -48
-88 -66 -156 -60 -60 6 -95 37 -108 93 -9 40 -2 90 30 228 22 91 17 137 -17
169 -22 21 -35 23 -142 26 l-117 4 -58 -216 c-32 -119 -56 -223 -52 -231 4
-12 24 -15 87 -15 70 0 80 -2 75 -16 -3 -9 -6 -20 -6 -25 0 -5 -97 -9 -231 -9
l-230 0 3 23 c3 20 9 22 70 25 40 2 71 8 77 16 14 16 241 851 241 883 0 22 -4
23 -65 23 -65 0 -71 4 -59 35 6 15 34 16 278 13 257 -3 273 -4 312 -25z m740
11 c-3 -9 -6 -20 -6 -25 0 -5 -22 -9 -49 -9 -111 0 -113 -7 -55 -251 26 -109
50 -199 53 -199 12 0 274 313 292 348 24 46 24 57 -1 82 -14 14 -33 20 -65 20
-45 0 -50 5 -39 34 5 14 34 16 219 16 l212 0 -5 -25 c-4 -22 -9 -25 -48 -25
-54 0 -109 -22 -148 -58 -15 -15 -111 -120 -211 -233 l-184 -206 -50 -187
c-28 -103 -51 -198 -51 -212 0 -23 2 -24 81 -24 78 0 80 -1 77 -22 l-3 -23
-249 -3 c-224 -2 -248 -1 -242 14 3 8 6 20 6 25 0 5 38 9 84 9 55 0 87 4 94
13 5 6 33 98 61 202 l51 190 -59 240 c-68 277 -67 275 -166 275 -61 0 -62 0
-57 25 l4 25 230 0 c206 0 229 -2 224 -16z m-5104 -1315 c69 -15 159 -59 229
-113 87 -67 95 -70 131 -49 20 12 43 42 65 86 29 56 39 68 56 65 28 -4 29 9
-44 -318 -33 -146 -62 -275 -64 -287 -4 -17 -13 -23 -33 -23 -26 0 -28 3 -30
48 -8 201 -130 419 -275 493 -94 49 -254 31 -357 -39 -128 -87 -175 -255 -108
-389 31 -61 109 -122 316 -243 286 -167 359 -228 409 -337 20 -43 27 -78 31
-149 9 -172 -35 -301 -138 -404 -72 -72 -157 -115 -280 -140 -121 -25 -217
-25 -314 0 -92 23 -164 62 -265 142 -40 32 -82 58 -92 58 -27 0 -49 -28 -91
-117 -29 -62 -44 -83 -58 -83 -12 0 -20 7 -20 18 -1 9 41 182 92 385 91 362
93 367 118 367 l25 0 0 -127 c0 -94 5 -144 19 -187 47 -157 150 -293 269 -357
61 -33 64 -34 187 -34 107 0 134 3 187 24 80 30 145 87 179 158 23 47 28 69
28 137 0 154 -39 198 -340 382 -219 133 -292 187 -345 258 -50 65 -71 133 -77
244 -11 226 76 393 251 476 63 30 114 44 217 60 48 7 69 6 122 -5z m3317 0
c192 -32 354 -197 416 -424 26 -94 31 -299 10 -430 -46 -297 -206 -589 -415
-760 -394 -320 -813 -256 -966 150 -92 245 -61 578 81 870 156 322 433 553
710 594 85 12 91 12 164 0z m-1376 -97 c169 -69 259 -235 227 -422 -34 -203
-189 -362 -430 -442 -93 -31 -99 -32 -340 -37 l-245 -6 -92 -335 c-50 -184
-92 -340 -92 -347 -1 -6 6 -19 15 -27 13 -13 42 -16 160 -16 152 0 151 1 138
-47 l-6 -23 -405 0 -405 0 6 23 c3 12 6 28 6 35 0 9 29 12 109 12 100 0 112 2
135 23 21 18 39 74 110 337 47 173 137 508 201 743 64 236 115 439 113 450 -3
21 -9 22 -111 25 -117 3 -126 8 -107 56 l10 27 472 -3 c468 -3 474 -3 531 -26z
m3687 14 c0 -12 -113 -505 -137 -596 -7 -28 -15 -36 -37 -38 l-29 -4 9 64 c5
35 9 122 9 193 0 113 -3 136 -22 177 -46 99 -115 137 -249 138 -81 0 -93 -2
-111 -22 -18 -20 -130 -414 -309 -1088 -12 -47 -32 -121 -44 -165 -38 -139
-70 -260 -70 -267 0 -4 7 -14 16 -22 12 -13 41 -16 146 -16 130 0 130 0 124
-22 -3 -13 -6 -29 -6 -35 0 -10 -91 -13 -420 -13 l-420 0 6 28 c4 15 9 30 11
35 2 4 63 7 134 7 134 0 161 6 179 41 6 11 69 235 141 497 71 262 142 527 159
587 17 61 37 135 45 165 8 30 26 97 41 149 38 140 41 136 -91 136 -99 -1 -115
-3 -161 -27 -154 -80 -270 -235 -355 -473 -22 -59 -26 -65 -51 -65 -16 0 -28
4 -28 8 0 8 171 590 185 630 7 19 1335 18 1335 -2z"/>
<path d="M6685 7221 c-78 -19 -139 -76 -208 -192 -43 -73 -91 -215 -107 -315
-15 -93 -16 -270 -1 -322 44 -158 225 -175 353 -33 59 65 120 185 152 294 30
103 51 287 42 372 -16 153 -103 227 -231 196z"/>
<path d="M7622 7178 c-8 -11 -112 -372 -112 -392 0 -10 188 -7 234 5 101 25
160 114 161 241 0 89 -19 125 -76 145 -47 16 -194 17 -207 1z"/>
<path d="M6659 5817 c-114 -39 -190 -105 -284 -248 -168 -256 -255 -576 -255
-944 0 -203 26 -297 104 -377 62 -64 88 -73 206 -73 99 0 109 2 173 33 82 40
155 110 227 217 178 264 263 573 263 955 0 189 -9 235 -68 335 -66 114 -212
154 -366 102z"/>
<path d="M4967 5742 c-17 -19 -31 -57 -61 -167 -61 -225 -156 -581 -156 -587
0 -14 361 -9 416 6 116 31 224 118 279 225 86 171 85 400 -3 484 -52 50 -86
57 -280 57 -161 0 -181 -2 -195 -18z"/>
</g>
</svg>
